/* XPM */
static char * C:\cygwin64\home\may_alexander\dev\env\gt90\repos\org_globaltester_platform\org_globaltester_platform\icons\globaltester_xpm[] = {
"48 48 84 1",
" 	c None",
".	c #939292",
"+	c #7F7E7E",
"@	c #818080",
"#	c #838181",
"$	c #828181",
"%	c #848383",
"&	c #949393",
"*	c #858484",
"=	c #868585",
"-	c #898888",
";	c #888787",
">	c #8A8888",
",	c #8A8989",
"'	c #878686",
")	c #919090",
"!	c #929191",
"~	c #8A8889",
"{	c #898989",
"]	c #83918E",
"^	c #84918D",
"/	c #84908D",
"(	c #838F8C",
"_	c #7C8885",
":	c #E5043C",
"<	c #E80039",
"[	c #EB0037",
"}	c #EA0038",
"|	c #EA0034",
"1	c #EB2154",
"2	c #ED4C74",
"3	c #EC4C74",
"4	c #E5043D",
"5	c #E40038",
"6	c #E40033",
"7	c #E30033",
"8	c #E6023B",
"9	c #E90039",
"0	c #E7013A",
"a	c #E4043C",
"b	c #E8013A",
"c	c #D3204C",
"d	c #A26573",
"e	c #A46171",
"f	c #A56171",
"g	c #A16674",
"h	c #BE3D5C",
"i	c #E80139",
"j	c #CA2D53",
"k	c #81948E",
"l	c #848F8C",
"m	c #858F8C",
"n	c #848E8B",
"o	c #7F9690",
"p	c #AA596D",
"q	c #E5033B",
"r	c #E4033B",
"s	c #CE2750",
"t	c #858E8B",
"u	c #AD556A",
"v	c #E5013A",
"w	c #E4013A",
"x	c #858D8B",
"y	c #83908D",
"z	c #83908C",
"A	c #9E9D9D",
"B	c #E40236",
"C	c #EA3663",
"D	c #838282",
"E	c #E30032",
"F	c #EE5E82",
"G	c #EE597E",
"H	c #7E9891",
"I	c #A95A6D",
"J	c #918F8F",
"K	c #807F7F",
"L	c #B24E66",
"M	c #B24F67",
"N	c #AF5369",
"O	c #C53256",
"P	c #E8023A",
"Q	c #E30031",
"R	c #E10026",
"S	c #ED4F77",
"                                                ",
"                                                ",
"                                                ",
"                                                ",
"                                                ",
"                                                ",
"                                                ",
"                                                ",
"           .+@###@@##$%.&                       ",
"        *%%=-;>>>;;>>,-'''''                    ",
"      $--;;;;;---;;----------@                  ",
"     );--;;;;;---;;----------'!                 ",
"    *;,--;;;;;---;;-----------'*                ",
"   ;-----;;;;;-      --------;;--               ",
"  --,,,,,----          ~,,,,,--,,               ",
"  --,,,,,--             {>,,,--,,$              ",
" ---,,,,,--              ]^//((//_              ",
" ;;;-----;                                      ",
" ;;;-----          :::::<[}}}}}}}|12222222222223",
"----,,,,,          ::::::::::::::456666666666667",
"----,,,,,          :899999999999990::::::::::::a",
"----,,,,,          bcdeffffffeeffghi:::::::::::a",
"----,,,,           9jklmmmmmmnnmmop}::::::::::qr",
"----,,,,           }st{,,,,,,--,,/u}::::::::::vw",
"----,,,,,            x{,,,,,,--,,/u}::          ",
"----,,,,,            {,,,,,,,--,,/u}::          ",
"----,,,,,                 ,,,--,,/u}::          ",
"----,,,,,                  ,,--,,yu}::          ",
" ---,,,,,-                ,,,--,,yu}::          ",
" ;;;-----;;               ---;;--zu}::          ",
" ;;;-----;;              ----;;--(u}::          ",
"  --,,,,,----           ,,,,,--,,/u}::          ",
"   =,,,,,-----,      ,,,,,,,,--,,/u}45          ",
"   A=,,,,-----,,,--,,,,,,,,,,--,,/u}BC          ",
"    D----;;;;;---;;----------;;--(u}EF          ",
"      ---;;;;;---;;---------  ;--(u}EG          ",
"       **%%=-;---;;-------    (//HI}EG          ",
"          AJK$DDD$$DDDD-      LMMNOPEG          ",
"                              }}}[<:EG          ",
"                             QQQQQQQRS          ",
"                                                ",
"                                                ",
"                                                ",
"                                                ",
"                                                ",
"                                                ",
"                                                ",
"                                                "};
