/* XPM */
static char * globaltester_xpm[] = {
"48 48 25 1",
" 	c None",
".	c #6A6E73",
"+	c #F7941E",
"@	c #F9941C",
"#	c #FF9617",
"$	c #FF9618",
"%	c #F8941D",
"&	c #F6931E",
"*	c #D88B30",
"=	c #5C6A7B",
"-	c #606B78",
";	c #58697D",
">	c #E18E2B",
",	c #F7941D",
"'	c #DB8C2E",
")	c #666D75",
"!	c #626B77",
"~	c #E28E2A",
"{	c #6A6E72",
"]	c #76716B",
"^	c #706F6F",
"/	c #E48F29",
"(	c #EA9025",
"_	c #E99026",
":	c #F5931F",
"                                                ",
"                                                ",
"                                                ",
"                                                ",
"                                                ",
"                                                ",
"                                                ",
"               ........                         ",
"           ................                     ",
"        .....................                   ",
"       ........................                 ",
"     ...........................                ",
"    .............................               ",
"   ...............................              ",
"   ............        ............             ",
"  ..........             ..........             ",
" ..........                                     ",
" .........          ++++++++++++++++++++++++++++",
" .........         +++++++++++++++++++++++++++++",
".........          +++++++++++++++++++++++++++++",
".........          +++++++++++++++++++++++++++++",
".........          +@#$$$$$$$$$$$$$#%&++++++++++",
".........          +*=-------------;>,++++++++++",
".........          +').............!~,++++++++++",
".........            {.............!~%          ",
".........            ..............!~%          ",
".........            ..............!~%          ",
".........            ..............!~%          ",
" .........           ..............!~%          ",
" .........                 ........!~%          ",
" ..........               .........!~%          ",
"  ...........            ..........!~%          ",
"  ............         ............!~%          ",
"   ................................!~%          ",
"    ...............................!~%          ",
"     ..............................!~%          ",
"      ....................... .....!~%          ",
"        ...................   .....!~%          ",
"          ................    ]]]]]^/%          ",
"               .......        (((((_:,          ",
"                              ++++++++          ",
"                                                ",
"                                                ",
"                                                ",
"                                                ",
"                                                ",
"                                                ",
"                                                "};
